<svg width="204" height="71" viewBox="0 0 204 71" fill="none" xmlns="http://www.w3.org/2000/svg">
<path d="M50.304 69L34.08 45.672L18.144 69H0.288L25.152 34.824L1.536 1.8H19.2L34.656 23.592L49.824 1.8H66.624L43.2 34.248L68.256 69H50.304ZM106.222 70.152C99.3738 70.152 93.1658 68.68 87.5978 65.736C82.0938 62.728 77.7418 58.6 74.5418 53.352C71.4058 48.04 69.8378 42.056 69.8378 35.4C69.8378 28.744 71.4058 22.792 74.5418 17.544C77.7418 12.232 82.0938 8.104 87.5978 5.16C93.1658 2.152 99.4058 0.647999 106.318 0.647999C112.142 0.647999 117.39 1.672 122.062 3.72C126.798 5.768 130.766 8.712 133.966 12.552L123.982 21.768C119.438 16.52 113.806 13.896 107.086 13.896C102.926 13.896 99.2138 14.824 95.9498 16.68C92.6858 18.472 90.1258 21 88.2698 24.264C86.4778 27.528 85.5818 31.24 85.5818 35.4C85.5818 39.56 86.4778 43.272 88.2698 46.536C90.1258 49.8 92.6858 52.36 95.9498 54.216C99.2138 56.008 102.926 56.904 107.086 56.904C113.806 56.904 119.438 54.248 123.982 48.936L133.966 58.152C130.766 62.056 126.798 65.032 122.062 67.08C117.326 69.128 112.046 70.152 106.222 70.152ZM187.284 69L174.324 50.28H173.556H160.02V69H144.468V1.8H173.556C179.508 1.8 184.66 2.792 189.012 4.776C193.428 6.76 196.82 9.576 199.188 13.224C201.556 16.872 202.74 21.192 202.74 26.184C202.74 31.176 201.524 35.496 199.092 39.144C196.724 42.728 193.332 45.48 188.916 47.4L203.988 69H187.284ZM186.996 26.184C186.996 22.408 185.78 19.528 183.348 17.544C180.916 15.496 177.364 14.472 172.692 14.472H160.02V37.896H172.692C177.364 37.896 180.916 36.872 183.348 34.824C185.78 32.776 186.996 29.896 186.996 26.184Z" fill="#000000cf"/>
</svg>
